<svg width="40" height="39" viewBox="0 0 40 39" fill="none" xmlns="http://www.w3.org/2000/svg">
<path d="M18.8441 25.4802L30.1909 36.5284C32.2061 38.4905 35.4734 38.4905 37.4886 36.5284C39.5038 34.5662 39.5038 31.3849 37.4886 29.4227L26.0522 18.2872M18.8441 25.4802L23.7017 19.7369C24.3167 19.0098 25.1392 18.5523 26.0522 18.2872M18.8441 25.4802L9.78513 36.1909C8.84333 37.3044 7.43945 37.9495 5.95794 37.9495C3.21975 37.9495 1 35.7882 1 33.122C1 31.6795 1.66252 30.3126 2.80614 29.3956L16.1104 18.7274M26.0522 18.2872C27.1213 17.9767 28.3145 17.9301 29.4434 18.023C29.6898 18.0433 29.9391 18.0536 30.1909 18.0536C35.0274 18.0536 38.9481 14.236 38.9481 9.52681C38.9481 8.2757 38.6714 7.08753 38.1743 6.01715L31.7987 12.225C29.6275 11.7397 27.9184 10.0756 27.42 7.96161L33.7958 1.75365C32.6964 1.26951 31.4759 1 30.1909 1C25.3544 1 21.4336 4.81758 21.4336 9.52681C21.4336 9.77197 21.4442 10.0147 21.4651 10.2546C21.642 12.2924 21.3262 14.5451 19.7048 15.8452L19.5062 16.0045M16.1104 18.7274L8.12065 10.9479H5.37863L1 3.84227L3.91909 1L11.2168 5.2634V7.93326L19.5062 16.0045M16.1104 18.7274L19.5062 16.0045M32.3802 31.5544L27.2718 26.5804M6.09329 32.9756H6.10789V32.9898H6.09329V32.9756Z" stroke="black" stroke-width="1.5" stroke-linecap="round" stroke-linejoin="round"/>
</svg>
