<svg width="43" height="43" viewBox="0 0 37 37" fill="none" xmlns="http://www.w3.org/2000/svg">
<path d="M12.3333 37.0001V29.2917M24.6667 37.0001V29.2917M4.625 37.0001V29.2917C4.625 21.6297 10.8379 16.9584 18.5 16.9584M18.5 16.9584C26.1621 16.9584 32.375 21.6297 32.375 29.2917V37.0001M18.5 16.9584C20.5444 16.9584 22.505 16.1463 23.9506 14.7007C25.3962 13.2551 26.2083 11.2945 26.2083 9.25008C26.2083 7.2057 25.3962 5.24506 23.9506 3.79947C22.505 2.35387 20.5444 1.54175 18.5 1.54175C16.4556 1.54175 14.495 2.35387 13.0494 3.79947C11.6038 5.24506 10.7917 7.2057 10.7917 9.25008C10.7917 11.2945 11.6038 13.2551 13.0494 14.7007C14.495 16.1463 16.4556 16.9584 18.5 16.9584Z" stroke="black" stroke-width="2"/>
</svg>
