<svg width="316" height="119" viewBox="0 0 316 119" fill="none" xmlns="http://www.w3.org/2000/svg">
<rect width="301.11" height="119" rx="33" transform="matrix(-1 0 0 1 301.699 0)" fill="#3479F6"/>
<path d="M316 119C316 119 299.911 112.753 301.5 72C297.925 79.6073 280.758 102.22 290 111C300 120.5 311 118.5 316 119Z" fill="#3479F6"/>
<path d="M26.1406 34.0195V21.9375H28.3906V34.0195C28.3906 35.1445 28.1602 36.0938 27.6992 36.8672C27.2383 37.6406 26.6016 38.2305 25.7891 38.6367C24.9844 39.0352 24.0586 39.2344 23.0117 39.2344C21.9648 39.2344 21.0352 39.0547 20.2227 38.6953C19.4102 38.3359 18.7734 37.7891 18.3125 37.0547C17.8516 36.3203 17.6211 35.3945 17.6211 34.2773H19.8828C19.8828 34.9961 20.0156 35.5859 20.2812 36.0469C20.5469 36.5078 20.9141 36.8477 21.3828 37.0664C21.8594 37.2852 22.4023 37.3945 23.0117 37.3945C23.6055 37.3945 24.1367 37.2695 24.6055 37.0195C25.082 36.7617 25.457 36.3828 25.7305 35.8828C26.0039 35.375 26.1406 34.7539 26.1406 34.0195ZM39.6523 36.0703V26.3203H41.832V39H39.7578L39.6523 36.0703ZM40.0625 33.3984L40.9648 33.375C40.9648 34.2188 40.875 35 40.6953 35.7188C40.5234 36.4297 40.2422 37.0469 39.8516 37.5703C39.4609 38.0938 38.9492 38.5039 38.3164 38.8008C37.6836 39.0898 36.9141 39.2344 36.0078 39.2344C35.3906 39.2344 34.8242 39.1445 34.3086 38.9648C33.8008 38.7852 33.3633 38.5078 32.9961 38.1328C32.6289 37.7578 32.3438 37.2695 32.1406 36.668C31.9453 36.0664 31.8477 35.3438 31.8477 34.5V26.3203H34.0156V34.5234C34.0156 35.0938 34.0781 35.5664 34.2031 35.9414C34.3359 36.3086 34.5117 36.6016 34.7305 36.8203C34.957 37.0312 35.207 37.1797 35.4805 37.2656C35.7617 37.3516 36.0508 37.3945 36.3477 37.3945C37.2695 37.3945 38 37.2188 38.5391 36.8672C39.0781 36.5078 39.4648 36.0273 39.6992 35.4258C39.9414 34.8164 40.0625 34.1406 40.0625 33.3984ZM52.5195 35.6367C52.5195 35.3242 52.4492 35.0352 52.3086 34.7695C52.1758 34.4961 51.8984 34.25 51.4766 34.0312C51.0625 33.8047 50.4375 33.6094 49.6016 33.4453C48.8984 33.2969 48.2617 33.1211 47.6914 32.918C47.1289 32.7148 46.6484 32.4688 46.25 32.1797C45.8594 31.8906 45.5586 31.5508 45.3477 31.1602C45.1367 30.7695 45.0312 30.3125 45.0312 29.7891C45.0312 29.2891 45.1406 28.8164 45.3594 28.3711C45.5859 27.9258 45.9023 27.5312 46.3086 27.1875C46.7227 26.8438 47.2188 26.5742 47.7969 26.3789C48.375 26.1836 49.0195 26.0859 49.7305 26.0859C50.7461 26.0859 51.6133 26.2656 52.332 26.625C53.0508 26.9844 53.6016 27.4648 53.9844 28.0664C54.3672 28.6602 54.5586 29.3203 54.5586 30.0469H52.3906C52.3906 29.6953 52.2852 29.3555 52.0742 29.0273C51.8711 28.6914 51.5703 28.4141 51.1719 28.1953C50.7812 27.9766 50.3008 27.8672 49.7305 27.8672C49.1289 27.8672 48.6406 27.9609 48.2656 28.1484C47.8984 28.3281 47.6289 28.5586 47.457 28.8398C47.293 29.1211 47.2109 29.418 47.2109 29.7305C47.2109 29.9648 47.25 30.1758 47.3281 30.3633C47.4141 30.543 47.5625 30.7109 47.7734 30.8672C47.9844 31.0156 48.2812 31.1562 48.6641 31.2891C49.0469 31.4219 49.5352 31.5547 50.1289 31.6875C51.168 31.9219 52.0234 32.2031 52.6953 32.5312C53.3672 32.8594 53.8672 33.2617 54.1953 33.7383C54.5234 34.2148 54.6875 34.793 54.6875 35.4727C54.6875 36.0273 54.5703 36.5352 54.3359 36.9961C54.1094 37.457 53.7773 37.8555 53.3398 38.1914C52.9102 38.5195 52.3945 38.7773 51.793 38.9648C51.1992 39.1445 50.5312 39.2344 49.7891 39.2344C48.6719 39.2344 47.7266 39.0352 46.9531 38.6367C46.1797 38.2383 45.5938 37.7227 45.1953 37.0898C44.7969 36.457 44.5977 35.7891 44.5977 35.0859H46.7773C46.8086 35.6797 46.9805 36.1523 47.293 36.5039C47.6055 36.8477 47.9883 37.0938 48.4414 37.2422C48.8945 37.3828 49.3438 37.4531 49.7891 37.4531C50.3828 37.4531 50.8789 37.375 51.2773 37.2188C51.6836 37.0625 51.9922 36.8477 52.2031 36.5742C52.4141 36.3008 52.5195 35.9883 52.5195 35.6367ZM62.8438 26.3203V27.9844H55.9883V26.3203H62.8438ZM58.3086 23.2383H60.4766V35.8594C60.4766 36.2891 60.543 36.6133 60.6758 36.832C60.8086 37.0508 60.9805 37.1953 61.1914 37.2656C61.4023 37.3359 61.6289 37.3711 61.8711 37.3711C62.0508 37.3711 62.2383 37.3555 62.4336 37.3242C62.6367 37.2852 62.7891 37.2539 62.8906 37.2305L62.9023 39C62.7305 39.0547 62.5039 39.1055 62.2227 39.1523C61.9492 39.207 61.6172 39.2344 61.2266 39.2344C60.6953 39.2344 60.207 39.1289 59.7617 38.918C59.3164 38.707 58.9609 38.3555 58.6953 37.8633C58.4375 37.3633 58.3086 36.6914 58.3086 35.8477V23.2383ZM70.7656 32.8008V32.5312C70.7656 31.6172 70.8984 30.7695 71.1641 29.9883C71.4297 29.1992 71.8125 28.5156 72.3125 27.9375C72.8125 27.3516 73.418 26.8984 74.1289 26.5781C74.8398 26.25 75.6367 26.0859 76.5195 26.0859C77.4102 26.0859 78.2109 26.25 78.9219 26.5781C79.6406 26.8984 80.25 27.3516 80.75 27.9375C81.2578 28.5156 81.6445 29.1992 81.9102 29.9883C82.1758 30.7695 82.3086 31.6172 82.3086 32.5312V32.8008C82.3086 33.7148 82.1758 34.5625 81.9102 35.3438C81.6445 36.125 81.2578 36.8086 80.75 37.3945C80.25 37.9727 79.6445 38.4258 78.9336 38.7539C78.2305 39.0742 77.4336 39.2344 76.543 39.2344C75.6523 39.2344 74.8516 39.0742 74.1406 38.7539C73.4297 38.4258 72.8203 37.9727 72.3125 37.3945C71.8125 36.8086 71.4297 36.125 71.1641 35.3438C70.8984 34.5625 70.7656 33.7148 70.7656 32.8008ZM72.9336 32.5312V32.8008C72.9336 33.4336 73.0078 34.0312 73.1562 34.5938C73.3047 35.1484 73.5273 35.6406 73.8242 36.0703C74.1289 36.5 74.5078 36.8398 74.9609 37.0898C75.4141 37.332 75.9414 37.4531 76.543 37.4531C77.1367 37.4531 77.6562 37.332 78.1016 37.0898C78.5547 36.8398 78.9297 36.5 79.2266 36.0703C79.5234 35.6406 79.7461 35.1484 79.8945 34.5938C80.0508 34.0312 80.1289 33.4336 80.1289 32.8008V32.5312C80.1289 31.9062 80.0508 31.3164 79.8945 30.7617C79.7461 30.1992 79.5195 29.7031 79.2148 29.2734C78.918 28.8359 78.543 28.4922 78.0898 28.2422C77.6445 27.9922 77.1211 27.8672 76.5195 27.8672C75.9258 27.8672 75.4023 27.9922 74.9492 28.2422C74.5039 28.4922 74.1289 28.8359 73.8242 29.2734C73.5273 29.7031 73.3047 30.1992 73.1562 30.7617C73.0078 31.3164 72.9336 31.9062 72.9336 32.5312ZM87.1953 29.0273V39H85.0273V26.3203H87.0781L87.1953 29.0273ZM86.6797 32.1797L85.7773 32.1445C85.7852 31.2773 85.9141 30.4766 86.1641 29.7422C86.4141 29 86.7656 28.3555 87.2188 27.8086C87.6719 27.2617 88.2109 26.8398 88.8359 26.543C89.4688 26.2383 90.168 26.0859 90.9336 26.0859C91.5586 26.0859 92.1211 26.1719 92.6211 26.3438C93.1211 26.5078 93.5469 26.7734 93.8984 27.1406C94.2578 27.5078 94.5312 27.9844 94.7188 28.5703C94.9062 29.1484 95 29.8555 95 30.6914V39H92.8203V30.668C92.8203 30.0039 92.7227 29.4727 92.5273 29.0742C92.332 28.668 92.0469 28.375 91.6719 28.1953C91.2969 28.0078 90.8359 27.9141 90.2891 27.9141C89.75 27.9141 89.2578 28.0273 88.8125 28.2539C88.375 28.4805 87.9961 28.793 87.6758 29.1914C87.3633 29.5898 87.1172 30.0469 86.9375 30.5625C86.7656 31.0703 86.6797 31.6094 86.6797 32.1797ZM103.555 39.2344C102.672 39.2344 101.871 39.0859 101.152 38.7891C100.441 38.4844 99.8281 38.0586 99.3125 37.5117C98.8047 36.9648 98.4141 36.3164 98.1406 35.5664C97.8672 34.8164 97.7305 33.9961 97.7305 33.1055V32.6133C97.7305 31.582 97.8828 30.6641 98.1875 29.8594C98.4922 29.0469 98.9062 28.3594 99.4297 27.7969C99.9531 27.2344 100.547 26.8086 101.211 26.5195C101.875 26.2305 102.562 26.0859 103.273 26.0859C104.18 26.0859 104.961 26.2422 105.617 26.5547C106.281 26.8672 106.824 27.3047 107.246 27.8672C107.668 28.4219 107.98 29.0781 108.184 29.8359C108.387 30.5859 108.488 31.4062 108.488 32.2969V33.2695H99.0195V31.5H106.32V31.3359C106.289 30.7734 106.172 30.2266 105.969 29.6953C105.773 29.1641 105.461 28.7266 105.031 28.3828C104.602 28.0391 104.016 27.8672 103.273 27.8672C102.781 27.8672 102.328 27.9727 101.914 28.1836C101.5 28.3867 101.145 28.6914 100.848 29.0977C100.551 29.5039 100.32 30 100.156 30.5859C99.9922 31.1719 99.9102 31.8477 99.9102 32.6133V33.1055C99.9102 33.707 99.9922 34.2734 100.156 34.8047C100.328 35.3281 100.574 35.7891 100.895 36.1875C101.223 36.5859 101.617 36.8984 102.078 37.125C102.547 37.3516 103.078 37.4648 103.672 37.4648C104.438 37.4648 105.086 37.3086 105.617 36.9961C106.148 36.6836 106.613 36.2656 107.012 35.7422L108.324 36.7852C108.051 37.1992 107.703 37.5938 107.281 37.9688C106.859 38.3438 106.34 38.6484 105.723 38.8828C105.113 39.1172 104.391 39.2344 103.555 39.2344ZM119.129 28.8398V39H116.949V26.3203H119.012L119.129 28.8398ZM118.684 32.1797L117.676 32.1445C117.684 31.2773 117.797 30.4766 118.016 29.7422C118.234 29 118.559 28.3555 118.988 27.8086C119.418 27.2617 119.953 26.8398 120.594 26.543C121.234 26.2383 121.977 26.0859 122.82 26.0859C123.414 26.0859 123.961 26.1719 124.461 26.3438C124.961 26.5078 125.395 26.7695 125.762 27.1289C126.129 27.4883 126.414 27.9492 126.617 28.5117C126.82 29.0742 126.922 29.7539 126.922 30.5508V39H124.754V30.6562C124.754 29.9922 124.641 29.4609 124.414 29.0625C124.195 28.6641 123.883 28.375 123.477 28.1953C123.07 28.0078 122.594 27.9141 122.047 27.9141C121.406 27.9141 120.871 28.0273 120.441 28.2539C120.012 28.4805 119.668 28.793 119.41 29.1914C119.152 29.5898 118.965 30.0469 118.848 30.5625C118.738 31.0703 118.684 31.6094 118.684 32.1797ZM126.898 30.9844L125.445 31.4297C125.453 30.7344 125.566 30.0664 125.785 29.4258C126.012 28.7852 126.336 28.2148 126.758 27.7148C127.188 27.2148 127.715 26.8203 128.34 26.5312C128.965 26.2344 129.68 26.0859 130.484 26.0859C131.164 26.0859 131.766 26.1758 132.289 26.3555C132.82 26.5352 133.266 26.8125 133.625 27.1875C133.992 27.5547 134.27 28.0273 134.457 28.6055C134.645 29.1836 134.738 29.8711 134.738 30.668V39H132.559V30.6445C132.559 29.9336 132.445 29.3828 132.219 28.9922C132 28.5938 131.688 28.3164 131.281 28.1602C130.883 27.9961 130.406 27.9141 129.852 27.9141C129.375 27.9141 128.953 27.9961 128.586 28.1602C128.219 28.3242 127.91 28.5508 127.66 28.8398C127.41 29.1211 127.219 29.4453 127.086 29.8125C126.961 30.1797 126.898 30.5703 126.898 30.9844ZM137.445 32.8008V32.5312C137.445 31.6172 137.578 30.7695 137.844 29.9883C138.109 29.1992 138.492 28.5156 138.992 27.9375C139.492 27.3516 140.098 26.8984 140.809 26.5781C141.52 26.25 142.316 26.0859 143.199 26.0859C144.09 26.0859 144.891 26.25 145.602 26.5781C146.32 26.8984 146.93 27.3516 147.43 27.9375C147.938 28.5156 148.324 29.1992 148.59 29.9883C148.855 30.7695 148.988 31.6172 148.988 32.5312V32.8008C148.988 33.7148 148.855 34.5625 148.59 35.3438C148.324 36.125 147.938 36.8086 147.43 37.3945C146.93 37.9727 146.324 38.4258 145.613 38.7539C144.91 39.0742 144.113 39.2344 143.223 39.2344C142.332 39.2344 141.531 39.0742 140.82 38.7539C140.109 38.4258 139.5 37.9727 138.992 37.3945C138.492 36.8086 138.109 36.125 137.844 35.3438C137.578 34.5625 137.445 33.7148 137.445 32.8008ZM139.613 32.5312V32.8008C139.613 33.4336 139.688 34.0312 139.836 34.5938C139.984 35.1484 140.207 35.6406 140.504 36.0703C140.809 36.5 141.188 36.8398 141.641 37.0898C142.094 37.332 142.621 37.4531 143.223 37.4531C143.816 37.4531 144.336 37.332 144.781 37.0898C145.234 36.8398 145.609 36.5 145.906 36.0703C146.203 35.6406 146.426 35.1484 146.574 34.5938C146.73 34.0312 146.809 33.4336 146.809 32.8008V32.5312C146.809 31.9062 146.73 31.3164 146.574 30.7617C146.426 30.1992 146.199 29.7031 145.895 29.2734C145.598 28.8359 145.223 28.4922 144.77 28.2422C144.324 27.9922 143.801 27.8672 143.199 27.8672C142.605 27.8672 142.082 27.9922 141.629 28.2422C141.184 28.4922 140.809 28.8359 140.504 29.2734C140.207 29.7031 139.984 30.1992 139.836 30.7617C139.688 31.3164 139.613 31.9062 139.613 32.5312ZM153.875 28.3125V39H151.707V26.3203H153.816L153.875 28.3125ZM157.836 26.25L157.824 28.2656C157.645 28.2266 157.473 28.2031 157.309 28.1953C157.152 28.1797 156.973 28.1719 156.77 28.1719C156.27 28.1719 155.828 28.25 155.445 28.4062C155.062 28.5625 154.738 28.7812 154.473 29.0625C154.207 29.3438 153.996 29.6797 153.84 30.0703C153.691 30.4531 153.594 30.875 153.547 31.3359L152.938 31.6875C152.938 30.9219 153.012 30.2031 153.16 29.5312C153.316 28.8594 153.555 28.2656 153.875 27.75C154.195 27.2266 154.602 26.8203 155.094 26.5312C155.594 26.2344 156.188 26.0859 156.875 26.0859C157.031 26.0859 157.211 26.1055 157.414 26.1445C157.617 26.1758 157.758 26.2109 157.836 26.25ZM164.867 39.2344C163.984 39.2344 163.184 39.0859 162.465 38.7891C161.754 38.4844 161.141 38.0586 160.625 37.5117C160.117 36.9648 159.727 36.3164 159.453 35.5664C159.18 34.8164 159.043 33.9961 159.043 33.1055V32.6133C159.043 31.582 159.195 30.6641 159.5 29.8594C159.805 29.0469 160.219 28.3594 160.742 27.7969C161.266 27.2344 161.859 26.8086 162.523 26.5195C163.188 26.2305 163.875 26.0859 164.586 26.0859C165.492 26.0859 166.273 26.2422 166.93 26.5547C167.594 26.8672 168.137 27.3047 168.559 27.8672C168.98 28.4219 169.293 29.0781 169.496 29.8359C169.699 30.5859 169.801 31.4062 169.801 32.2969V33.2695H160.332V31.5H167.633V31.3359C167.602 30.7734 167.484 30.2266 167.281 29.6953C167.086 29.1641 166.773 28.7266 166.344 28.3828C165.914 28.0391 165.328 27.8672 164.586 27.8672C164.094 27.8672 163.641 27.9727 163.227 28.1836C162.812 28.3867 162.457 28.6914 162.16 29.0977C161.863 29.5039 161.633 30 161.469 30.5859C161.305 31.1719 161.223 31.8477 161.223 32.6133V33.1055C161.223 33.707 161.305 34.2734 161.469 34.8047C161.641 35.3281 161.887 35.7891 162.207 36.1875C162.535 36.5859 162.93 36.8984 163.391 37.125C163.859 37.3516 164.391 37.4648 164.984 37.4648C165.75 37.4648 166.398 37.3086 166.93 36.9961C167.461 36.6836 167.926 36.2656 168.324 35.7422L169.637 36.7852C169.363 37.1992 169.016 37.5938 168.594 37.9688C168.172 38.3438 167.652 38.6484 167.035 38.8828C166.426 39.1172 165.703 39.2344 164.867 39.2344ZM185.668 35.6367C185.668 35.3242 185.598 35.0352 185.457 34.7695C185.324 34.4961 185.047 34.25 184.625 34.0312C184.211 33.8047 183.586 33.6094 182.75 33.4453C182.047 33.2969 181.41 33.1211 180.84 32.918C180.277 32.7148 179.797 32.4688 179.398 32.1797C179.008 31.8906 178.707 31.5508 178.496 31.1602C178.285 30.7695 178.18 30.3125 178.18 29.7891C178.18 29.2891 178.289 28.8164 178.508 28.3711C178.734 27.9258 179.051 27.5312 179.457 27.1875C179.871 26.8438 180.367 26.5742 180.945 26.3789C181.523 26.1836 182.168 26.0859 182.879 26.0859C183.895 26.0859 184.762 26.2656 185.48 26.625C186.199 26.9844 186.75 27.4648 187.133 28.0664C187.516 28.6602 187.707 29.3203 187.707 30.0469H185.539C185.539 29.6953 185.434 29.3555 185.223 29.0273C185.02 28.6914 184.719 28.4141 184.32 28.1953C183.93 27.9766 183.449 27.8672 182.879 27.8672C182.277 27.8672 181.789 27.9609 181.414 28.1484C181.047 28.3281 180.777 28.5586 180.605 28.8398C180.441 29.1211 180.359 29.418 180.359 29.7305C180.359 29.9648 180.398 30.1758 180.477 30.3633C180.562 30.543 180.711 30.7109 180.922 30.8672C181.133 31.0156 181.43 31.1562 181.812 31.2891C182.195 31.4219 182.684 31.5547 183.277 31.6875C184.316 31.9219 185.172 32.2031 185.844 32.5312C186.516 32.8594 187.016 33.2617 187.344 33.7383C187.672 34.2148 187.836 34.793 187.836 35.4727C187.836 36.0273 187.719 36.5352 187.484 36.9961C187.258 37.457 186.926 37.8555 186.488 38.1914C186.059 38.5195 185.543 38.7773 184.941 38.9648C184.348 39.1445 183.68 39.2344 182.938 39.2344C181.82 39.2344 180.875 39.0352 180.102 38.6367C179.328 38.2383 178.742 37.7227 178.344 37.0898C177.945 36.457 177.746 35.7891 177.746 35.0859H179.926C179.957 35.6797 180.129 36.1523 180.441 36.5039C180.754 36.8477 181.137 37.0938 181.59 37.2422C182.043 37.3828 182.492 37.4531 182.938 37.4531C183.531 37.4531 184.027 37.375 184.426 37.2188C184.832 37.0625 185.141 36.8477 185.352 36.5742C185.562 36.3008 185.668 35.9883 185.668 35.6367ZM195.992 26.3203V27.9844H189.137V26.3203H195.992ZM191.457 23.2383H193.625V35.8594C193.625 36.2891 193.691 36.6133 193.824 36.832C193.957 37.0508 194.129 37.1953 194.34 37.2656C194.551 37.3359 194.777 37.3711 195.02 37.3711C195.199 37.3711 195.387 37.3555 195.582 37.3242C195.785 37.2852 195.938 37.2539 196.039 37.2305L196.051 39C195.879 39.0547 195.652 39.1055 195.371 39.1523C195.098 39.207 194.766 39.2344 194.375 39.2344C193.844 39.2344 193.355 39.1289 192.91 38.918C192.465 38.707 192.109 38.3555 191.844 37.8633C191.586 37.3633 191.457 36.6914 191.457 35.8477V23.2383ZM203.797 39.2344C202.914 39.2344 202.113 39.0859 201.395 38.7891C200.684 38.4844 200.07 38.0586 199.555 37.5117C199.047 36.9648 198.656 36.3164 198.383 35.5664C198.109 34.8164 197.973 33.9961 197.973 33.1055V32.6133C197.973 31.582 198.125 30.6641 198.43 29.8594C198.734 29.0469 199.148 28.3594 199.672 27.7969C200.195 27.2344 200.789 26.8086 201.453 26.5195C202.117 26.2305 202.805 26.0859 203.516 26.0859C204.422 26.0859 205.203 26.2422 205.859 26.5547C206.523 26.8672 207.066 27.3047 207.488 27.8672C207.91 28.4219 208.223 29.0781 208.426 29.8359C208.629 30.5859 208.73 31.4062 208.73 32.2969V33.2695H199.262V31.5H206.562V31.3359C206.531 30.7734 206.414 30.2266 206.211 29.6953C206.016 29.1641 205.703 28.7266 205.273 28.3828C204.844 28.0391 204.258 27.8672 203.516 27.8672C203.023 27.8672 202.57 27.9727 202.156 28.1836C201.742 28.3867 201.387 28.6914 201.09 29.0977C200.793 29.5039 200.562 30 200.398 30.5859C200.234 31.1719 200.152 31.8477 200.152 32.6133V33.1055C200.152 33.707 200.234 34.2734 200.398 34.8047C200.57 35.3281 200.816 35.7891 201.137 36.1875C201.465 36.5859 201.859 36.8984 202.32 37.125C202.789 37.3516 203.32 37.4648 203.914 37.4648C204.68 37.4648 205.328 37.3086 205.859 36.9961C206.391 36.6836 206.855 36.2656 207.254 35.7422L208.566 36.7852C208.293 37.1992 207.945 37.5938 207.523 37.9688C207.102 38.3438 206.582 38.6484 205.965 38.8828C205.355 39.1172 204.633 39.2344 203.797 39.2344ZM213.43 28.7578V43.875H211.25V26.3203H213.242L213.43 28.7578ZM221.973 32.5547V32.8008C221.973 33.7227 221.863 34.5781 221.645 35.3672C221.426 36.1484 221.105 36.8281 220.684 37.4062C220.27 37.9844 219.758 38.4336 219.148 38.7539C218.539 39.0742 217.84 39.2344 217.051 39.2344C216.246 39.2344 215.535 39.1016 214.918 38.8359C214.301 38.5703 213.777 38.1836 213.348 37.6758C212.918 37.168 212.574 36.5586 212.316 35.8477C212.066 35.1367 211.895 34.3359 211.801 33.4453V32.1328C211.895 31.1953 212.07 30.3555 212.328 29.6133C212.586 28.8711 212.926 28.2383 213.348 27.7148C213.777 27.1836 214.297 26.7812 214.906 26.5078C215.516 26.2266 216.219 26.0859 217.016 26.0859C217.812 26.0859 218.52 26.2422 219.137 26.5547C219.754 26.8594 220.273 27.2969 220.695 27.8672C221.117 28.4375 221.434 29.1211 221.645 29.918C221.863 30.707 221.973 31.5859 221.973 32.5547ZM219.793 32.8008V32.5547C219.793 31.9219 219.727 31.3281 219.594 30.7734C219.461 30.2109 219.254 29.7188 218.973 29.2969C218.699 28.8672 218.348 28.5312 217.918 28.2891C217.488 28.0391 216.977 27.9141 216.383 27.9141C215.836 27.9141 215.359 28.0078 214.953 28.1953C214.555 28.3828 214.215 28.6367 213.934 28.957C213.652 29.2695 213.422 29.6289 213.242 30.0352C213.07 30.4336 212.941 30.8477 212.855 31.2773V34.3125C213.012 34.8594 213.23 35.375 213.512 35.8594C213.793 36.3359 214.168 36.7227 214.637 37.0195C215.105 37.3086 215.695 37.4531 216.406 37.4531C216.992 37.4531 217.496 37.332 217.918 37.0898C218.348 36.8398 218.699 36.5 218.973 36.0703C219.254 35.6406 219.461 35.1484 219.594 34.5938C219.727 34.0312 219.793 33.4336 219.793 32.8008ZM238.449 36.0703V26.3203H240.629V39H238.555L238.449 36.0703ZM238.859 33.3984L239.762 33.375C239.762 34.2188 239.672 35 239.492 35.7188C239.32 36.4297 239.039 37.0469 238.648 37.5703C238.258 38.0938 237.746 38.5039 237.113 38.8008C236.48 39.0898 235.711 39.2344 234.805 39.2344C234.188 39.2344 233.621 39.1445 233.105 38.9648C232.598 38.7852 232.16 38.5078 231.793 38.1328C231.426 37.7578 231.141 37.2695 230.938 36.668C230.742 36.0664 230.645 35.3438 230.645 34.5V26.3203H232.812V34.5234C232.812 35.0938 232.875 35.5664 233 35.9414C233.133 36.3086 233.309 36.6016 233.527 36.8203C233.754 37.0312 234.004 37.1797 234.277 37.2656C234.559 37.3516 234.848 37.3945 235.145 37.3945C236.066 37.3945 236.797 37.2188 237.336 36.8672C237.875 36.5078 238.262 36.0273 238.496 35.4258C238.738 34.8164 238.859 34.1406 238.859 33.3984ZM246.102 29.0273V39H243.934V26.3203H245.984L246.102 29.0273ZM245.586 32.1797L244.684 32.1445C244.691 31.2773 244.82 30.4766 245.07 29.7422C245.32 29 245.672 28.3555 246.125 27.8086C246.578 27.2617 247.117 26.8398 247.742 26.543C248.375 26.2383 249.074 26.0859 249.84 26.0859C250.465 26.0859 251.027 26.1719 251.527 26.3438C252.027 26.5078 252.453 26.7734 252.805 27.1406C253.164 27.5078 253.438 27.9844 253.625 28.5703C253.812 29.1484 253.906 29.8555 253.906 30.6914V39H251.727V30.668C251.727 30.0039 251.629 29.4727 251.434 29.0742C251.238 28.668 250.953 28.375 250.578 28.1953C250.203 28.0078 249.742 27.9141 249.195 27.9141C248.656 27.9141 248.164 28.0273 247.719 28.2539C247.281 28.4805 246.902 28.793 246.582 29.1914C246.27 29.5898 246.023 30.0469 245.844 30.5625C245.672 31.0703 245.586 31.6094 245.586 32.1797ZM262.508 26.3203V27.9844H255.652V26.3203H262.508ZM257.973 23.2383H260.141V35.8594C260.141 36.2891 260.207 36.6133 260.34 36.832C260.473 37.0508 260.645 37.1953 260.855 37.2656C261.066 37.3359 261.293 37.3711 261.535 37.3711C261.715 37.3711 261.902 37.3555 262.098 37.3242C262.301 37.2852 262.453 37.2539 262.555 37.2305L262.566 39C262.395 39.0547 262.168 39.1055 261.887 39.1523C261.613 39.207 261.281 39.2344 260.891 39.2344C260.359 39.2344 259.871 39.1289 259.426 38.918C258.98 38.707 258.625 38.3555 258.359 37.8633C258.102 37.3633 257.973 36.6914 257.973 35.8477V23.2383ZM267.406 26.3203V39H265.227V26.3203H267.406ZM265.062 22.957C265.062 22.6055 265.168 22.3086 265.379 22.0664C265.598 21.8242 265.918 21.7031 266.34 21.7031C266.754 21.7031 267.07 21.8242 267.289 22.0664C267.516 22.3086 267.629 22.6055 267.629 22.957C267.629 23.293 267.516 23.582 267.289 23.8242C267.07 24.0586 266.754 24.1758 266.34 24.1758C265.918 24.1758 265.598 24.0586 265.379 23.8242C265.168 23.582 265.062 23.293 265.062 22.957ZM273.242 21V39H271.062V21H273.242ZM22.2148 65.6875L25.7422 54.3203H28.0625L22.9766 68.957C22.8594 69.2695 22.7031 69.6055 22.5078 69.9648C22.3203 70.332 22.0781 70.6797 21.7812 71.0078C21.4844 71.3359 21.125 71.6016 20.7031 71.8047C20.2891 72.0156 19.793 72.1211 19.2148 72.1211C19.043 72.1211 18.8242 72.0977 18.5586 72.0508C18.293 72.0039 18.1055 71.9648 17.9961 71.9336L17.9844 70.1758C18.0469 70.1836 18.1445 70.1914 18.2773 70.1992C18.418 70.2148 18.5156 70.2227 18.5703 70.2227C19.0625 70.2227 19.4805 70.1562 19.8242 70.0234C20.168 69.8984 20.457 69.6836 20.6914 69.3789C20.9336 69.082 21.1406 68.6719 21.3125 68.1484L22.2148 65.6875ZM19.625 54.3203L22.918 64.1641L23.4805 66.4492L21.9219 67.2461L17.2578 54.3203H19.625ZM29.2578 60.8008V60.5312C29.2578 59.6172 29.3906 58.7695 29.6562 57.9883C29.9219 57.1992 30.3047 56.5156 30.8047 55.9375C31.3047 55.3516 31.9102 54.8984 32.6211 54.5781C33.332 54.25 34.1289 54.0859 35.0117 54.0859C35.9023 54.0859 36.7031 54.25 37.4141 54.5781C38.1328 54.8984 38.7422 55.3516 39.2422 55.9375C39.75 56.5156 40.1367 57.1992 40.4023 57.9883C40.668 58.7695 40.8008 59.6172 40.8008 60.5312V60.8008C40.8008 61.7148 40.668 62.5625 40.4023 63.3438C40.1367 64.125 39.75 64.8086 39.2422 65.3945C38.7422 65.9727 38.1367 66.4258 37.4258 66.7539C36.7227 67.0742 35.9258 67.2344 35.0352 67.2344C34.1445 67.2344 33.3438 67.0742 32.6328 66.7539C31.9219 66.4258 31.3125 65.9727 30.8047 65.3945C30.3047 64.8086 29.9219 64.125 29.6562 63.3438C29.3906 62.5625 29.2578 61.7148 29.2578 60.8008ZM31.4258 60.5312V60.8008C31.4258 61.4336 31.5 62.0312 31.6484 62.5938C31.7969 63.1484 32.0195 63.6406 32.3164 64.0703C32.6211 64.5 33 64.8398 33.4531 65.0898C33.9062 65.332 34.4336 65.4531 35.0352 65.4531C35.6289 65.4531 36.1484 65.332 36.5938 65.0898C37.0469 64.8398 37.4219 64.5 37.7188 64.0703C38.0156 63.6406 38.2383 63.1484 38.3867 62.5938C38.543 62.0312 38.6211 61.4336 38.6211 60.8008V60.5312C38.6211 59.9062 38.543 59.3164 38.3867 58.7617C38.2383 58.1992 38.0117 57.7031 37.707 57.2734C37.4102 56.8359 37.0352 56.4922 36.582 56.2422C36.1367 55.9922 35.6133 55.8672 35.0117 55.8672C34.418 55.8672 33.8945 55.9922 33.4414 56.2422C32.9961 56.4922 32.6211 56.8359 32.3164 57.2734C32.0195 57.7031 31.7969 58.1992 31.6484 58.7617C31.5 59.3164 31.4258 59.9062 31.4258 60.5312ZM51.2773 64.0703V54.3203H53.457V67H51.3828L51.2773 64.0703ZM51.6875 61.3984L52.5898 61.375C52.5898 62.2188 52.5 63 52.3203 63.7188C52.1484 64.4297 51.8672 65.0469 51.4766 65.5703C51.0859 66.0938 50.5742 66.5039 49.9414 66.8008C49.3086 67.0898 48.5391 67.2344 47.6328 67.2344C47.0156 67.2344 46.4492 67.1445 45.9336 66.9648C45.4258 66.7852 44.9883 66.5078 44.6211 66.1328C44.2539 65.7578 43.9688 65.2695 43.7656 64.668C43.5703 64.0664 43.4727 63.3438 43.4727 62.5V54.3203H45.6406V62.5234C45.6406 63.0938 45.7031 63.5664 45.8281 63.9414C45.9609 64.3086 46.1367 64.6016 46.3555 64.8203C46.582 65.0312 46.832 65.1797 47.1055 65.2656C47.3867 65.3516 47.6758 65.3945 47.9727 65.3945C48.8945 65.3945 49.625 65.2188 50.1641 64.8672C50.7031 64.5078 51.0898 64.0273 51.3242 63.4258C51.5664 62.8164 51.6875 62.1406 51.6875 61.3984ZM67.7891 65.4531C68.3047 65.4531 68.7812 65.3477 69.2188 65.1367C69.6562 64.9258 70.0156 64.6367 70.2969 64.2695C70.5781 63.8945 70.7383 63.4688 70.7773 62.9922H72.8398C72.8008 63.7422 72.5469 64.4414 72.0781 65.0898C71.6172 65.7305 71.0117 66.25 70.2617 66.6484C69.5117 67.0391 68.6875 67.2344 67.7891 67.2344C66.8359 67.2344 66.0039 67.0664 65.293 66.7305C64.5898 66.3945 64.0039 65.9336 63.5352 65.3477C63.0742 64.7617 62.7266 64.0898 62.4922 63.332C62.2656 62.5664 62.1523 61.7578 62.1523 60.9062V60.4141C62.1523 59.5625 62.2656 58.7578 62.4922 58C62.7266 57.2344 63.0742 56.5586 63.5352 55.9727C64.0039 55.3867 64.5898 54.9258 65.293 54.5898C66.0039 54.2539 66.8359 54.0859 67.7891 54.0859C68.7812 54.0859 69.6484 54.2891 70.3906 54.6953C71.1328 55.0938 71.7148 55.6406 72.1367 56.3359C72.5664 57.0234 72.8008 57.8047 72.8398 58.6797H70.7773C70.7383 58.1562 70.5898 57.6836 70.332 57.2617C70.082 56.8398 69.7383 56.5039 69.3008 56.2539C68.8711 55.9961 68.3672 55.8672 67.7891 55.8672C67.125 55.8672 66.5664 56 66.1133 56.2656C65.668 56.5234 65.3125 56.875 65.0469 57.3203C64.7891 57.7578 64.6016 58.2461 64.4844 58.7852C64.375 59.3164 64.3203 59.8594 64.3203 60.4141V60.9062C64.3203 61.4609 64.375 62.0078 64.4844 62.5469C64.5938 63.0859 64.7773 63.5742 65.0352 64.0117C65.3008 64.4492 65.6562 64.8008 66.1016 65.0664C66.5547 65.3242 67.1172 65.4531 67.7891 65.4531ZM82.7539 64.832V58.3047C82.7539 57.8047 82.6523 57.3711 82.4492 57.0039C82.2539 56.6289 81.957 56.3398 81.5586 56.1367C81.1602 55.9336 80.668 55.832 80.082 55.832C79.5352 55.832 79.0547 55.9258 78.6406 56.1133C78.2344 56.3008 77.9141 56.5469 77.6797 56.8516C77.4531 57.1562 77.3398 57.4844 77.3398 57.8359H75.1719C75.1719 57.3828 75.2891 56.9336 75.5234 56.4883C75.7578 56.043 76.0938 55.6406 76.5312 55.2812C76.9766 54.9141 77.5078 54.625 78.125 54.4141C78.75 54.1953 79.4453 54.0859 80.2109 54.0859C81.1328 54.0859 81.9453 54.2422 82.6484 54.5547C83.3594 54.8672 83.9141 55.3398 84.3125 55.9727C84.7188 56.5977 84.9219 57.3828 84.9219 58.3281V64.2344C84.9219 64.6562 84.957 65.1055 85.0273 65.582C85.1055 66.0586 85.2188 66.4688 85.3672 66.8125V67H83.1055C82.9961 66.75 82.9102 66.418 82.8477 66.0039C82.7852 65.582 82.7539 65.1914 82.7539 64.832ZM83.1289 59.3125L83.1523 60.8359H80.9609C80.3438 60.8359 79.793 60.8867 79.3086 60.9883C78.8242 61.082 78.418 61.2266 78.0898 61.4219C77.7617 61.6172 77.5117 61.8633 77.3398 62.1602C77.168 62.4492 77.082 62.7891 77.082 63.1797C77.082 63.5781 77.1719 63.9414 77.3516 64.2695C77.5312 64.5977 77.8008 64.8594 78.1602 65.0547C78.5273 65.2422 78.9766 65.3359 79.5078 65.3359C80.1719 65.3359 80.7578 65.1953 81.2656 64.9141C81.7734 64.6328 82.1758 64.2891 82.4727 63.8828C82.7773 63.4766 82.9414 63.082 82.9648 62.6992L83.8906 63.7422C83.8359 64.0703 83.6875 64.4336 83.4453 64.832C83.2031 65.2305 82.8789 65.6133 82.4727 65.9805C82.0742 66.3398 81.5977 66.6406 81.043 66.8828C80.4961 67.1172 79.8789 67.2344 79.1914 67.2344C78.332 67.2344 77.5781 67.0664 76.9297 66.7305C76.2891 66.3945 75.7891 65.9453 75.4297 65.3828C75.0781 64.8125 74.9023 64.1758 74.9023 63.4727C74.9023 62.793 75.0352 62.1953 75.3008 61.6797C75.5664 61.1562 75.9492 60.7227 76.4492 60.3789C76.9492 60.0273 77.5508 59.7617 78.2539 59.582C78.957 59.4023 79.7422 59.3125 80.6094 59.3125H83.1289ZM90.5 57.0273V67H88.332V54.3203H90.3828L90.5 57.0273ZM89.9844 60.1797L89.082 60.1445C89.0898 59.2773 89.2188 58.4766 89.4688 57.7422C89.7188 57 90.0703 56.3555 90.5234 55.8086C90.9766 55.2617 91.5156 54.8398 92.1406 54.543C92.7734 54.2383 93.4727 54.0859 94.2383 54.0859C94.8633 54.0859 95.4258 54.1719 95.9258 54.3438C96.4258 54.5078 96.8516 54.7734 97.2031 55.1406C97.5625 55.5078 97.8359 55.9844 98.0234 56.5703C98.2109 57.1484 98.3047 57.8555 98.3047 58.6914V67H96.125V58.668C96.125 58.0039 96.0273 57.4727 95.832 57.0742C95.6367 56.668 95.3516 56.375 94.9766 56.1953C94.6016 56.0078 94.1406 55.9141 93.5938 55.9141C93.0547 55.9141 92.5625 56.0273 92.1172 56.2539C91.6797 56.4805 91.3008 56.793 90.9805 57.1914C90.668 57.5898 90.4219 58.0469 90.2422 58.5625C90.0703 59.0703 89.9844 59.6094 89.9844 60.1797ZM114.934 63.6367C114.934 63.3242 114.863 63.0352 114.723 62.7695C114.59 62.4961 114.312 62.25 113.891 62.0312C113.477 61.8047 112.852 61.6094 112.016 61.4453C111.312 61.2969 110.676 61.1211 110.105 60.918C109.543 60.7148 109.062 60.4688 108.664 60.1797C108.273 59.8906 107.973 59.5508 107.762 59.1602C107.551 58.7695 107.445 58.3125 107.445 57.7891C107.445 57.2891 107.555 56.8164 107.773 56.3711C108 55.9258 108.316 55.5312 108.723 55.1875C109.137 54.8438 109.633 54.5742 110.211 54.3789C110.789 54.1836 111.434 54.0859 112.145 54.0859C113.16 54.0859 114.027 54.2656 114.746 54.625C115.465 54.9844 116.016 55.4648 116.398 56.0664C116.781 56.6602 116.973 57.3203 116.973 58.0469H114.805C114.805 57.6953 114.699 57.3555 114.488 57.0273C114.285 56.6914 113.984 56.4141 113.586 56.1953C113.195 55.9766 112.715 55.8672 112.145 55.8672C111.543 55.8672 111.055 55.9609 110.68 56.1484C110.312 56.3281 110.043 56.5586 109.871 56.8398C109.707 57.1211 109.625 57.418 109.625 57.7305C109.625 57.9648 109.664 58.1758 109.742 58.3633C109.828 58.543 109.977 58.7109 110.188 58.8672C110.398 59.0156 110.695 59.1562 111.078 59.2891C111.461 59.4219 111.949 59.5547 112.543 59.6875C113.582 59.9219 114.438 60.2031 115.109 60.5312C115.781 60.8594 116.281 61.2617 116.609 61.7383C116.938 62.2148 117.102 62.793 117.102 63.4727C117.102 64.0273 116.984 64.5352 116.75 64.9961C116.523 65.457 116.191 65.8555 115.754 66.1914C115.324 66.5195 114.809 66.7773 114.207 66.9648C113.613 67.1445 112.945 67.2344 112.203 67.2344C111.086 67.2344 110.141 67.0352 109.367 66.6367C108.594 66.2383 108.008 65.7227 107.609 65.0898C107.211 64.457 107.012 63.7891 107.012 63.0859H109.191C109.223 63.6797 109.395 64.1523 109.707 64.5039C110.02 64.8477 110.402 65.0938 110.855 65.2422C111.309 65.3828 111.758 65.4531 112.203 65.4531C112.797 65.4531 113.293 65.375 113.691 65.2188C114.098 65.0625 114.406 64.8477 114.617 64.5742C114.828 64.3008 114.934 63.9883 114.934 63.6367ZM125.258 54.3203V55.9844H118.402V54.3203H125.258ZM120.723 51.2383H122.891V63.8594C122.891 64.2891 122.957 64.6133 123.09 64.832C123.223 65.0508 123.395 65.1953 123.605 65.2656C123.816 65.3359 124.043 65.3711 124.285 65.3711C124.465 65.3711 124.652 65.3555 124.848 65.3242C125.051 65.2852 125.203 65.2539 125.305 65.2305L125.316 67C125.145 67.0547 124.918 67.1055 124.637 67.1523C124.363 67.207 124.031 67.2344 123.641 67.2344C123.109 67.2344 122.621 67.1289 122.176 66.918C121.73 66.707 121.375 66.3555 121.109 65.8633C120.852 65.3633 120.723 64.6914 120.723 63.8477V51.2383ZM135.277 64.832V58.3047C135.277 57.8047 135.176 57.3711 134.973 57.0039C134.777 56.6289 134.48 56.3398 134.082 56.1367C133.684 55.9336 133.191 55.832 132.605 55.832C132.059 55.832 131.578 55.9258 131.164 56.1133C130.758 56.3008 130.438 56.5469 130.203 56.8516C129.977 57.1562 129.863 57.4844 129.863 57.8359H127.695C127.695 57.3828 127.812 56.9336 128.047 56.4883C128.281 56.043 128.617 55.6406 129.055 55.2812C129.5 54.9141 130.031 54.625 130.648 54.4141C131.273 54.1953 131.969 54.0859 132.734 54.0859C133.656 54.0859 134.469 54.2422 135.172 54.5547C135.883 54.8672 136.438 55.3398 136.836 55.9727C137.242 56.5977 137.445 57.3828 137.445 58.3281V64.2344C137.445 64.6562 137.48 65.1055 137.551 65.582C137.629 66.0586 137.742 66.4688 137.891 66.8125V67H135.629C135.52 66.75 135.434 66.418 135.371 66.0039C135.309 65.582 135.277 65.1914 135.277 64.832ZM135.652 59.3125L135.676 60.8359H133.484C132.867 60.8359 132.316 60.8867 131.832 60.9883C131.348 61.082 130.941 61.2266 130.613 61.4219C130.285 61.6172 130.035 61.8633 129.863 62.1602C129.691 62.4492 129.605 62.7891 129.605 63.1797C129.605 63.5781 129.695 63.9414 129.875 64.2695C130.055 64.5977 130.324 64.8594 130.684 65.0547C131.051 65.2422 131.5 65.3359 132.031 65.3359C132.695 65.3359 133.281 65.1953 133.789 64.9141C134.297 64.6328 134.699 64.2891 134.996 63.8828C135.301 63.4766 135.465 63.082 135.488 62.6992L136.414 63.7422C136.359 64.0703 136.211 64.4336 135.969 64.832C135.727 65.2305 135.402 65.6133 134.996 65.9805C134.598 66.3398 134.121 66.6406 133.566 66.8828C133.02 67.1172 132.402 67.2344 131.715 67.2344C130.855 67.2344 130.102 67.0664 129.453 66.7305C128.812 66.3945 128.312 65.9453 127.953 65.3828C127.602 64.8125 127.426 64.1758 127.426 63.4727C127.426 62.793 127.559 62.1953 127.824 61.6797C128.09 61.1562 128.473 60.7227 128.973 60.3789C129.473 60.0273 130.074 59.7617 130.777 59.582C131.48 59.4023 132.266 59.3125 133.133 59.3125H135.652ZM143.023 56.3125V67H140.855V54.3203H142.965L143.023 56.3125ZM146.984 54.25L146.973 56.2656C146.793 56.2266 146.621 56.2031 146.457 56.1953C146.301 56.1797 146.121 56.1719 145.918 56.1719C145.418 56.1719 144.977 56.25 144.594 56.4062C144.211 56.5625 143.887 56.7812 143.621 57.0625C143.355 57.3438 143.145 57.6797 142.988 58.0703C142.84 58.4531 142.742 58.875 142.695 59.3359L142.086 59.6875C142.086 58.9219 142.16 58.2031 142.309 57.5312C142.465 56.8594 142.703 56.2656 143.023 55.75C143.344 55.2266 143.75 54.8203 144.242 54.5312C144.742 54.2344 145.336 54.0859 146.023 54.0859C146.18 54.0859 146.359 54.1055 146.562 54.1445C146.766 54.1758 146.906 54.2109 146.984 54.25ZM154.883 54.3203V55.9844H148.027V54.3203H154.883ZM150.348 51.2383H152.516V63.8594C152.516 64.2891 152.582 64.6133 152.715 64.832C152.848 65.0508 153.02 65.1953 153.23 65.2656C153.441 65.3359 153.668 65.3711 153.91 65.3711C154.09 65.3711 154.277 65.3555 154.473 65.3242C154.676 65.2852 154.828 65.2539 154.93 65.2305L154.941 67C154.77 67.0547 154.543 67.1055 154.262 67.1523C153.988 67.207 153.656 67.2344 153.266 67.2344C152.734 67.2344 152.246 67.1289 151.801 66.918C151.355 66.707 151 66.3555 150.734 65.8633C150.477 65.3633 150.348 64.6914 150.348 63.8477V51.2383ZM168.453 65.4531C168.969 65.4531 169.445 65.3477 169.883 65.1367C170.32 64.9258 170.68 64.6367 170.961 64.2695C171.242 63.8945 171.402 63.4688 171.441 62.9922H173.504C173.465 63.7422 173.211 64.4414 172.742 65.0898C172.281 65.7305 171.676 66.25 170.926 66.6484C170.176 67.0391 169.352 67.2344 168.453 67.2344C167.5 67.2344 166.668 67.0664 165.957 66.7305C165.254 66.3945 164.668 65.9336 164.199 65.3477C163.738 64.7617 163.391 64.0898 163.156 63.332C162.93 62.5664 162.816 61.7578 162.816 60.9062V60.4141C162.816 59.5625 162.93 58.7578 163.156 58C163.391 57.2344 163.738 56.5586 164.199 55.9727C164.668 55.3867 165.254 54.9258 165.957 54.5898C166.668 54.2539 167.5 54.0859 168.453 54.0859C169.445 54.0859 170.312 54.2891 171.055 54.6953C171.797 55.0938 172.379 55.6406 172.801 56.3359C173.23 57.0234 173.465 57.8047 173.504 58.6797H171.441C171.402 58.1562 171.254 57.6836 170.996 57.2617C170.746 56.8398 170.402 56.5039 169.965 56.2539C169.535 55.9961 169.031 55.8672 168.453 55.8672C167.789 55.8672 167.23 56 166.777 56.2656C166.332 56.5234 165.977 56.875 165.711 57.3203C165.453 57.7578 165.266 58.2461 165.148 58.7852C165.039 59.3164 164.984 59.8594 164.984 60.4141V60.9062C164.984 61.4609 165.039 62.0078 165.148 62.5469C165.258 63.0859 165.441 63.5742 165.699 64.0117C165.965 64.4492 166.32 64.8008 166.766 65.0664C167.219 65.3242 167.781 65.4531 168.453 65.4531ZM175.367 60.8008V60.5312C175.367 59.6172 175.5 58.7695 175.766 57.9883C176.031 57.1992 176.414 56.5156 176.914 55.9375C177.414 55.3516 178.02 54.8984 178.73 54.5781C179.441 54.25 180.238 54.0859 181.121 54.0859C182.012 54.0859 182.812 54.25 183.523 54.5781C184.242 54.8984 184.852 55.3516 185.352 55.9375C185.859 56.5156 186.246 57.1992 186.512 57.9883C186.777 58.7695 186.91 59.6172 186.91 60.5312V60.8008C186.91 61.7148 186.777 62.5625 186.512 63.3438C186.246 64.125 185.859 64.8086 185.352 65.3945C184.852 65.9727 184.246 66.4258 183.535 66.7539C182.832 67.0742 182.035 67.2344 181.145 67.2344C180.254 67.2344 179.453 67.0742 178.742 66.7539C178.031 66.4258 177.422 65.9727 176.914 65.3945C176.414 64.8086 176.031 64.125 175.766 63.3438C175.5 62.5625 175.367 61.7148 175.367 60.8008ZM177.535 60.5312V60.8008C177.535 61.4336 177.609 62.0312 177.758 62.5938C177.906 63.1484 178.129 63.6406 178.426 64.0703C178.73 64.5 179.109 64.8398 179.562 65.0898C180.016 65.332 180.543 65.4531 181.145 65.4531C181.738 65.4531 182.258 65.332 182.703 65.0898C183.156 64.8398 183.531 64.5 183.828 64.0703C184.125 63.6406 184.348 63.1484 184.496 62.5938C184.652 62.0312 184.73 61.4336 184.73 60.8008V60.5312C184.73 59.9062 184.652 59.3164 184.496 58.7617C184.348 58.1992 184.121 57.7031 183.816 57.2734C183.52 56.8359 183.145 56.4922 182.691 56.2422C182.246 55.9922 181.723 55.8672 181.121 55.8672C180.527 55.8672 180.004 55.9922 179.551 56.2422C179.105 56.4922 178.73 56.8359 178.426 57.2734C178.129 57.7031 177.906 58.1992 177.758 58.7617C177.609 59.3164 177.535 59.9062 177.535 60.5312ZM191.984 49V67H189.805V49H191.984ZM197.82 49V67H195.641V49H197.82ZM206.562 67.2344C205.68 67.2344 204.879 67.0859 204.16 66.7891C203.449 66.4844 202.836 66.0586 202.32 65.5117C201.812 64.9648 201.422 64.3164 201.148 63.5664C200.875 62.8164 200.738 61.9961 200.738 61.1055V60.6133C200.738 59.582 200.891 58.6641 201.195 57.8594C201.5 57.0469 201.914 56.3594 202.438 55.7969C202.961 55.2344 203.555 54.8086 204.219 54.5195C204.883 54.2305 205.57 54.0859 206.281 54.0859C207.188 54.0859 207.969 54.2422 208.625 54.5547C209.289 54.8672 209.832 55.3047 210.254 55.8672C210.676 56.4219 210.988 57.0781 211.191 57.8359C211.395 58.5859 211.496 59.4062 211.496 60.2969V61.2695H202.027V59.5H209.328V59.3359C209.297 58.7734 209.18 58.2266 208.977 57.6953C208.781 57.1641 208.469 56.7266 208.039 56.3828C207.609 56.0391 207.023 55.8672 206.281 55.8672C205.789 55.8672 205.336 55.9727 204.922 56.1836C204.508 56.3867 204.152 56.6914 203.855 57.0977C203.559 57.5039 203.328 58 203.164 58.5859C203 59.1719 202.918 59.8477 202.918 60.6133V61.1055C202.918 61.707 203 62.2734 203.164 62.8047C203.336 63.3281 203.582 63.7891 203.902 64.1875C204.23 64.5859 204.625 64.8984 205.086 65.125C205.555 65.3516 206.086 65.4648 206.68 65.4648C207.445 65.4648 208.094 65.3086 208.625 64.9961C209.156 64.6836 209.621 64.2656 210.02 63.7422L211.332 64.7852C211.059 65.1992 210.711 65.5938 210.289 65.9688C209.867 66.3438 209.348 66.6484 208.73 66.8828C208.121 67.1172 207.398 67.2344 206.562 67.2344ZM219.102 65.4531C219.617 65.4531 220.094 65.3477 220.531 65.1367C220.969 64.9258 221.328 64.6367 221.609 64.2695C221.891 63.8945 222.051 63.4688 222.09 62.9922H224.152C224.113 63.7422 223.859 64.4414 223.391 65.0898C222.93 65.7305 222.324 66.25 221.574 66.6484C220.824 67.0391 220 67.2344 219.102 67.2344C218.148 67.2344 217.316 67.0664 216.605 66.7305C215.902 66.3945 215.316 65.9336 214.848 65.3477C214.387 64.7617 214.039 64.0898 213.805 63.332C213.578 62.5664 213.465 61.7578 213.465 60.9062V60.4141C213.465 59.5625 213.578 58.7578 213.805 58C214.039 57.2344 214.387 56.5586 214.848 55.9727C215.316 55.3867 215.902 54.9258 216.605 54.5898C217.316 54.2539 218.148 54.0859 219.102 54.0859C220.094 54.0859 220.961 54.2891 221.703 54.6953C222.445 55.0938 223.027 55.6406 223.449 56.3359C223.879 57.0234 224.113 57.8047 224.152 58.6797H222.09C222.051 58.1562 221.902 57.6836 221.645 57.2617C221.395 56.8398 221.051 56.5039 220.613 56.2539C220.184 55.9961 219.68 55.8672 219.102 55.8672C218.438 55.8672 217.879 56 217.426 56.2656C216.98 56.5234 216.625 56.875 216.359 57.3203C216.102 57.7578 215.914 58.2461 215.797 58.7852C215.688 59.3164 215.633 59.8594 215.633 60.4141V60.9062C215.633 61.4609 215.688 62.0078 215.797 62.5469C215.906 63.0859 216.09 63.5742 216.348 64.0117C216.613 64.4492 216.969 64.8008 217.414 65.0664C217.867 65.3242 218.43 65.4531 219.102 65.4531ZM231.898 54.3203V55.9844H225.043V54.3203H231.898ZM227.363 51.2383H229.531V63.8594C229.531 64.2891 229.598 64.6133 229.73 64.832C229.863 65.0508 230.035 65.1953 230.246 65.2656C230.457 65.3359 230.684 65.3711 230.926 65.3711C231.105 65.3711 231.293 65.3555 231.488 65.3242C231.691 65.2852 231.844 65.2539 231.945 65.2305L231.957 67C231.785 67.0547 231.559 67.1055 231.277 67.1523C231.004 67.207 230.672 67.2344 230.281 67.2344C229.75 67.2344 229.262 67.1289 228.816 66.918C228.371 66.707 228.016 66.3555 227.75 65.8633C227.492 65.3633 227.363 64.6914 227.363 63.8477V51.2383ZM236.797 54.3203V67H234.617V54.3203H236.797ZM234.453 50.957C234.453 50.6055 234.559 50.3086 234.77 50.0664C234.988 49.8242 235.309 49.7031 235.73 49.7031C236.145 49.7031 236.461 49.8242 236.68 50.0664C236.906 50.3086 237.02 50.6055 237.02 50.957C237.02 51.293 236.906 51.582 236.68 51.8242C236.461 52.0586 236.145 52.1758 235.73 52.1758C235.309 52.1758 234.988 52.0586 234.77 51.8242C234.559 51.582 234.453 51.293 234.453 50.957ZM242.445 57.0273V67H240.277V54.3203H242.328L242.445 57.0273ZM241.93 60.1797L241.027 60.1445C241.035 59.2773 241.164 58.4766 241.414 57.7422C241.664 57 242.016 56.3555 242.469 55.8086C242.922 55.2617 243.461 54.8398 244.086 54.543C244.719 54.2383 245.418 54.0859 246.184 54.0859C246.809 54.0859 247.371 54.1719 247.871 54.3438C248.371 54.5078 248.797 54.7734 249.148 55.1406C249.508 55.5078 249.781 55.9844 249.969 56.5703C250.156 57.1484 250.25 57.8555 250.25 58.6914V67H248.07V58.668C248.07 58.0039 247.973 57.4727 247.777 57.0742C247.582 56.668 247.297 56.375 246.922 56.1953C246.547 56.0078 246.086 55.9141 245.539 55.9141C245 55.9141 244.508 56.0273 244.062 56.2539C243.625 56.4805 243.246 56.793 242.926 57.1914C242.613 57.5898 242.367 58.0469 242.188 58.5625C242.016 59.0703 241.93 59.6094 241.93 60.1797ZM261.758 54.3203H263.727V66.7305C263.727 67.8477 263.5 68.8008 263.047 69.5898C262.594 70.3789 261.961 70.9766 261.148 71.3828C260.344 71.7969 259.414 72.0039 258.359 72.0039C257.922 72.0039 257.406 71.9336 256.812 71.793C256.227 71.6602 255.648 71.4297 255.078 71.1016C254.516 70.7812 254.043 70.3477 253.66 69.8008L254.797 68.5117C255.328 69.1523 255.883 69.5977 256.461 69.8477C257.047 70.0977 257.625 70.2227 258.195 70.2227C258.883 70.2227 259.477 70.0938 259.977 69.8359C260.477 69.5781 260.863 69.1953 261.137 68.6875C261.418 68.1875 261.559 67.5703 261.559 66.8359V57.1094L261.758 54.3203ZM253.027 60.8008V60.5547C253.027 59.5859 253.141 58.707 253.367 57.918C253.602 57.1211 253.934 56.4375 254.363 55.8672C254.801 55.2969 255.328 54.8594 255.945 54.5547C256.562 54.2422 257.258 54.0859 258.031 54.0859C258.828 54.0859 259.523 54.2266 260.117 54.5078C260.719 54.7812 261.227 55.1836 261.641 55.7148C262.062 56.2383 262.395 56.8711 262.637 57.6133C262.879 58.3555 263.047 59.1953 263.141 60.1328V61.2109C263.055 62.1406 262.887 62.9766 262.637 63.7188C262.395 64.4609 262.062 65.0938 261.641 65.6172C261.227 66.1406 260.719 66.543 260.117 66.8242C259.516 67.0977 258.812 67.2344 258.008 67.2344C257.25 67.2344 256.562 67.0742 255.945 66.7539C255.336 66.4336 254.812 65.9844 254.375 65.4062C253.938 64.8281 253.602 64.1484 253.367 63.3672C253.141 62.5781 253.027 61.7227 253.027 60.8008ZM255.195 60.5547V60.8008C255.195 61.4336 255.258 62.0273 255.383 62.582C255.516 63.1367 255.715 63.625 255.98 64.0469C256.254 64.4688 256.602 64.8008 257.023 65.043C257.445 65.2773 257.949 65.3945 258.535 65.3945C259.254 65.3945 259.848 65.2422 260.316 64.9375C260.785 64.6328 261.156 64.2305 261.43 63.7305C261.711 63.2305 261.93 62.6875 262.086 62.1016V59.2773C262 58.8477 261.867 58.4336 261.688 58.0352C261.516 57.6289 261.289 57.2695 261.008 56.957C260.734 56.6367 260.395 56.3828 259.988 56.1953C259.582 56.0078 259.105 55.9141 258.559 55.9141C257.965 55.9141 257.453 56.0391 257.023 56.2891C256.602 56.5312 256.254 56.8672 255.98 57.2969C255.715 57.7188 255.516 58.2109 255.383 58.7734C255.258 59.3281 255.195 59.9219 255.195 60.5547ZM20.8203 84.7578V99.875H18.6406V82.3203H20.6328L20.8203 84.7578ZM29.3633 88.5547V88.8008C29.3633 89.7227 29.2539 90.5781 29.0352 91.3672C28.8164 92.1484 28.4961 92.8281 28.0742 93.4062C27.6602 93.9844 27.1484 94.4336 26.5391 94.7539C25.9297 95.0742 25.2305 95.2344 24.4414 95.2344C23.6367 95.2344 22.9258 95.1016 22.3086 94.8359C21.6914 94.5703 21.168 94.1836 20.7383 93.6758C20.3086 93.168 19.9648 92.5586 19.707 91.8477C19.457 91.1367 19.2852 90.3359 19.1914 89.4453V88.1328C19.2852 87.1953 19.4609 86.3555 19.7188 85.6133C19.9766 84.8711 20.3164 84.2383 20.7383 83.7148C21.168 83.1836 21.6875 82.7812 22.2969 82.5078C22.9062 82.2266 23.6094 82.0859 24.4062 82.0859C25.2031 82.0859 25.9102 82.2422 26.5273 82.5547C27.1445 82.8594 27.6641 83.2969 28.0859 83.8672C28.5078 84.4375 28.8242 85.1211 29.0352 85.918C29.2539 86.707 29.3633 87.5859 29.3633 88.5547ZM27.1836 88.8008V88.5547C27.1836 87.9219 27.1172 87.3281 26.9844 86.7734C26.8516 86.2109 26.6445 85.7188 26.3633 85.2969C26.0898 84.8672 25.7383 84.5312 25.3086 84.2891C24.8789 84.0391 24.3672 83.9141 23.7734 83.9141C23.2266 83.9141 22.75 84.0078 22.3438 84.1953C21.9453 84.3828 21.6055 84.6367 21.3242 84.957C21.043 85.2695 20.8125 85.6289 20.6328 86.0352C20.4609 86.4336 20.332 86.8477 20.2461 87.2773V90.3125C20.4023 90.8594 20.6211 91.375 20.9023 91.8594C21.1836 92.3359 21.5586 92.7227 22.0273 93.0195C22.4961 93.3086 23.0859 93.4531 23.7969 93.4531C24.3828 93.4531 24.8867 93.332 25.3086 93.0898C25.7383 92.8398 26.0898 92.5 26.3633 92.0703C26.6445 91.6406 26.8516 91.1484 26.9844 90.5938C27.1172 90.0312 27.1836 89.4336 27.1836 88.8008ZM37.3906 95.2344C36.5078 95.2344 35.707 95.0859 34.9883 94.7891C34.2773 94.4844 33.6641 94.0586 33.1484 93.5117C32.6406 92.9648 32.25 92.3164 31.9766 91.5664C31.7031 90.8164 31.5664 89.9961 31.5664 89.1055V88.6133C31.5664 87.582 31.7188 86.6641 32.0234 85.8594C32.3281 85.0469 32.7422 84.3594 33.2656 83.7969C33.7891 83.2344 34.3828 82.8086 35.0469 82.5195C35.7109 82.2305 36.3984 82.0859 37.1094 82.0859C38.0156 82.0859 38.7969 82.2422 39.4531 82.5547C40.1172 82.8672 40.6602 83.3047 41.082 83.8672C41.5039 84.4219 41.8164 85.0781 42.0195 85.8359C42.2227 86.5859 42.3242 87.4062 42.3242 88.2969V89.2695H32.8555V87.5H40.1562V87.3359C40.125 86.7734 40.0078 86.2266 39.8047 85.6953C39.6094 85.1641 39.2969 84.7266 38.8672 84.3828C38.4375 84.0391 37.8516 83.8672 37.1094 83.8672C36.6172 83.8672 36.1641 83.9727 35.75 84.1836C35.3359 84.3867 34.9805 84.6914 34.6836 85.0977C34.3867 85.5039 34.1562 86 33.9922 86.5859C33.8281 87.1719 33.7461 87.8477 33.7461 88.6133V89.1055C33.7461 89.707 33.8281 90.2734 33.9922 90.8047C34.1641 91.3281 34.4102 91.7891 34.7305 92.1875C35.0586 92.5859 35.4531 92.8984 35.9141 93.125C36.3828 93.3516 36.9141 93.4648 37.5078 93.4648C38.2734 93.4648 38.9219 93.3086 39.4531 92.9961C39.9844 92.6836 40.4492 92.2656 40.8477 91.7422L42.1602 92.7852C41.8867 93.1992 41.5391 93.5938 41.1172 93.9688C40.6953 94.3438 40.1758 94.6484 39.5586 94.8828C38.9492 95.1172 38.2266 95.2344 37.3906 95.2344ZM50.1641 82.3203V83.9844H43.3086V82.3203H50.1641ZM45.6289 79.2383H47.7969V91.8594C47.7969 92.2891 47.8633 92.6133 47.9961 92.832C48.1289 93.0508 48.3008 93.1953 48.5117 93.2656C48.7227 93.3359 48.9492 93.3711 49.1914 93.3711C49.3711 93.3711 49.5586 93.3555 49.7539 93.3242C49.957 93.2852 50.1094 93.2539 50.2109 93.2305L50.2227 95C50.0508 95.0547 49.8242 95.1055 49.543 95.1523C49.2695 95.207 48.9375 95.2344 48.5469 95.2344C48.0156 95.2344 47.5273 95.1289 47.082 94.918C46.6367 94.707 46.2812 94.3555 46.0156 93.8633C45.7578 93.3633 45.6289 92.6914 45.6289 91.8477V79.2383ZM60.0898 91.6367C60.0898 91.3242 60.0195 91.0352 59.8789 90.7695C59.7461 90.4961 59.4688 90.25 59.0469 90.0312C58.6328 89.8047 58.0078 89.6094 57.1719 89.4453C56.4688 89.2969 55.832 89.1211 55.2617 88.918C54.6992 88.7148 54.2188 88.4688 53.8203 88.1797C53.4297 87.8906 53.1289 87.5508 52.918 87.1602C52.707 86.7695 52.6016 86.3125 52.6016 85.7891C52.6016 85.2891 52.7109 84.8164 52.9297 84.3711C53.1562 83.9258 53.4727 83.5312 53.8789 83.1875C54.293 82.8438 54.7891 82.5742 55.3672 82.3789C55.9453 82.1836 56.5898 82.0859 57.3008 82.0859C58.3164 82.0859 59.1836 82.2656 59.9023 82.625C60.6211 82.9844 61.1719 83.4648 61.5547 84.0664C61.9375 84.6602 62.1289 85.3203 62.1289 86.0469H59.9609C59.9609 85.6953 59.8555 85.3555 59.6445 85.0273C59.4414 84.6914 59.1406 84.4141 58.7422 84.1953C58.3516 83.9766 57.8711 83.8672 57.3008 83.8672C56.6992 83.8672 56.2109 83.9609 55.8359 84.1484C55.4688 84.3281 55.1992 84.5586 55.0273 84.8398C54.8633 85.1211 54.7812 85.418 54.7812 85.7305C54.7812 85.9648 54.8203 86.1758 54.8984 86.3633C54.9844 86.543 55.1328 86.7109 55.3438 86.8672C55.5547 87.0156 55.8516 87.1562 56.2344 87.2891C56.6172 87.4219 57.1055 87.5547 57.6992 87.6875C58.7383 87.9219 59.5938 88.2031 60.2656 88.5312C60.9375 88.8594 61.4375 89.2617 61.7656 89.7383C62.0938 90.2148 62.2578 90.793 62.2578 91.4727C62.2578 92.0273 62.1406 92.5352 61.9062 92.9961C61.6797 93.457 61.3477 93.8555 60.9102 94.1914C60.4805 94.5195 59.9648 94.7773 59.3633 94.9648C58.7695 95.1445 58.1016 95.2344 57.3594 95.2344C56.2422 95.2344 55.2969 95.0352 54.5234 94.6367C53.75 94.2383 53.1641 93.7227 52.7656 93.0898C52.3672 92.457 52.168 91.7891 52.168 91.0859H54.3477C54.3789 91.6797 54.5508 92.1523 54.8633 92.5039C55.1758 92.8477 55.5586 93.0938 56.0117 93.2422C56.4648 93.3828 56.9141 93.4531 57.3594 93.4531C57.9531 93.4531 58.4492 93.375 58.8477 93.2188C59.2539 93.0625 59.5625 92.8477 59.7734 92.5742C59.9844 92.3008 60.0898 91.9883 60.0898 91.6367ZM67.6836 77.9375L67.5312 90.1836H65.5742L65.4102 77.9375H67.6836ZM65.3398 93.9102C65.3398 93.5586 65.4453 93.2617 65.6562 93.0195C65.875 92.7773 66.1953 92.6562 66.6172 92.6562C67.0312 92.6562 67.3477 92.7773 67.5664 93.0195C67.793 93.2617 67.9062 93.5586 67.9062 93.9102C67.9062 94.2461 67.793 94.5352 67.5664 94.7773C67.3477 95.0195 67.0312 95.1406 66.6172 95.1406C66.1953 95.1406 65.875 95.0195 65.6562 94.7773C65.4453 94.5352 65.3398 94.2461 65.3398 93.9102Z" fill="white"/>
</svg>
